<?xml version="1.0" encoding="UTF-8"?>
<svg version="1.1" xmlns="http://www.w3.org/2000/svg" width="64" height="64">
<path d="M0 0 C3.96 0 7.92 0 12 0 C12 1.65 12 3.3 12 5 C11.34 5 10.68 5 10 5 C10.309375 5.61875 10.61875 6.2375 10.9375 6.875 C13.95016663 15.73578419 13.19434206 23.18932702 9.375 31.5625 C6.0080709 37.0605565 0.35634122 42.44967287 -6 44 C-12.47768094 45.32144691 -18.71195236 45.22465223 -25 43 C-26.7890625 41.421875 -26.7890625 41.421875 -28 40 C-27.01 38.68 -26.02 37.36 -25 36 C-23.94232422 36.48146484 -23.94232422 36.48146484 -22.86328125 36.97265625 C-17.38477823 38.93834014 -11.05044536 39.19258122 -5.58203125 37.0546875 C-0.31058769 33.90962361 3.67691109 29.73762908 6 24 C6.24110759 20.94985072 6.24110759 20.94985072 6.125 17.75 C6.10695312 16.67234375 6.08890625 15.5946875 6.0703125 14.484375 C6.04710937 13.66453125 6.02390625 12.8446875 6 12 C4.02 12 2.04 12 0 12 C0 8.04 0 4.08 0 0 Z " fill="#2F9A9A" transform="translate(46,14)"/>
<path d="M0 0 C0.36867187 0.46792969 0.73734375 0.93585937 1.1171875 1.41796875 C0.1271875 2.73796875 -0.8628125 4.05796875 -1.8828125 5.41796875 C-2.58792969 5.09699219 -3.29304688 4.77601562 -4.01953125 4.4453125 C-9.49803427 2.47962861 -15.83236714 2.22538753 -21.30078125 4.36328125 C-26.57222481 7.50834514 -30.55972359 11.68033967 -32.8828125 17.41796875 C-33.12392009 20.46811803 -33.12392009 20.46811803 -33.0078125 23.66796875 C-32.98976563 24.745625 -32.97171875 25.82328125 -32.953125 26.93359375 C-32.92992187 27.7534375 -32.90671875 28.57328125 -32.8828125 29.41796875 C-30.9028125 29.41796875 -28.9228125 29.41796875 -26.8828125 29.41796875 C-26.8828125 33.37796875 -26.8828125 37.33796875 -26.8828125 41.41796875 C-30.8428125 41.41796875 -34.8028125 41.41796875 -38.8828125 41.41796875 C-38.6765625 40.51046875 -38.4703125 39.60296875 -38.2578125 38.66796875 C-37.71605594 35.09237547 -38.22990682 32.13692993 -38.9453125 28.60546875 C-40.33766938 20.91389732 -39.78306484 14.69620164 -35.2578125 8.16796875 C-30.4351324 2.39943613 -25.02231447 -2.16165918 -17.45703125 -3.46875 C-11.89752966 -3.71340182 -4.40942782 -3.70501715 0 0 Z " fill="#7CD2D2" transform="translate(44.8828125,8.58203125)"/>
</svg>
